# xmcd
#
# Track frame offsets: 
#        150
#        15794
#        40833
#        56716
#        82554
#        104649
#        127452
#        150014
#        177851
#        192899
#        214706
#        237598
#        259297
#        278402
#        298590
#        315461
#
# Disc length: 4442 seconds
#
# Revision: 2
# Processed by: cddbd v1.5.2PL0 Copyright (c) Steve Scherf et al.
# Submitted via: ExactAudioCopy v1.0b1
#
DISCID=d3115810
DTITLE=Various Artist - The Best Of Salsa ( CD3 )
DYEAR=2006
DGENRE=Salsa
TTITLE0=Laura Lopez - Mi So Denboso
TTITLE1=Paul Ramirez - Etnia
TTITLE2=Conchita Moreno - La Belleza
TTITLE3=Laura Lopez - Costumbres
TTITLE4=Paul Ramirez - Siembra
TTITLE5=Conchita Moreno - Apiadata De Mi
TTITLE6=Laura Lopez - No Lo Voy A Olvidar
TTITLE7=Paul Ramirez - Pablo Pueblo
TTITLE8=Conchita Moreno - Manha De Carnaval
TTITLE9=Laura Lopez - Senor Amante
TTITLE10=Paul Ramirez - Tu Cumpleanos
TTITLE11=Conchita Moreno - Estamos Solos
TTITLE12=Laura Lopez - Propiedad Privada
TTITLE13=Paul Ramirez - Dejate Querer
TTITLE14=Laura Lopez - Necestio Verte
TTITLE15=Lisa De Maya - La Fiesta
EXTD=YEAR: 1999
EXTT0=
EXTT1=
EXTT2=
EXTT3=
EXTT4=
EXTT5=
EXTT6=
EXTT7=
EXTT8=
EXTT9=
EXTT10=
EXTT11=
EXTT12=
EXTT13=
EXTT14=
EXTT15=
PLAYORDER=
